HIERARCHY
ROOT Hips
{
    OFFSET 0.000000 0.000000 0.000000
    CHANNELS 6 Xposition Yposition Zposition Zrotation Xrotation Yrotation
    JOINT Spine
    {
        OFFSET -0.000000 14.517291 0.000000
        CHANNELS 3 Zrotation Xrotation Yrotation
        JOINT Spine1
        {
            OFFSET -0.000000 37.558300 0.000000
            CHANNELS 3 Zrotation Xrotation Yrotation
            JOINT Neck
            {
                OFFSET -0.000000 37.404057 3.400369
                CHANNELS 3 Zrotation Xrotation Yrotation
                JOINT Head
                {
                    OFFSET -0.000000 24.785618 -3.540803
                    CHANNELS 3 Zrotation Xrotation Yrotation
                    End Site
                    {
                        OFFSET -0.000000 35.408028 0.000000
                    }
                }
            }
            JOINT LeftShoulder
            {
                OFFSET 6.992933 33.973492 -0.192664
                CHANNELS 3 Zrotation Xrotation Yrotation
                JOINT LeftArm
                {
                    OFFSET 21.527611 0.000000 0.000000
                    CHANNELS 3 Zrotation Xrotation Yrotation
                    JOINT LeftForeArm
                    {
                        OFFSET 56.353916 0.000000 0.000000
                        CHANNELS 3 Zrotation Xrotation Yrotation
                        JOINT LeftHand
                        {
                            OFFSET 47.774071 0.000000 0.000000
                            CHANNELS 3 Zrotation Xrotation Yrotation
                            End Site
                            {
                                OFFSET 26.556021 0.000000 0.000000
                            }
                        }
                    }
                }
            }
            JOINT RightShoulder
            {
                OFFSET -7.065357 33.973492 -0.192664
                CHANNELS 3 Zrotation Xrotation Yrotation
                JOINT RightArm
                {
                    OFFSET -21.527611 0.000000 0.000000
                    CHANNELS 3 Zrotation Xrotation Yrotation
                    JOINT RightForeArm
                    {
                        OFFSET -56.353916 0.000000 0.000000
                        CHANNELS 3 Zrotation Xrotation Yrotation
                        JOINT RightHand
                        {
                            OFFSET -47.774071 0.000000 0.000000
                            CHANNELS 3 Zrotation Xrotation Yrotation
                            End Site
                            {
                                OFFSET -26.556021 0.000000 0.000000
                            }
                        }
                    }
                }
            }
        }
    }
    JOINT LeftUpLeg
    {
        OFFSET 17.704014 0.000000 0.000000
        CHANNELS 3 Zrotation Xrotation Yrotation
        JOINT LeftLeg
        {
            OFFSET -0.000000 -81.181816 0.000000
            CHANNELS 3 Zrotation Xrotation Yrotation
            JOINT LeftFoot
            {
                OFFSET -0.000000 -62.821102 0.000000
                CHANNELS 3 Zrotation Xrotation Yrotation
                JOINT LeftToeBase
                {
                    OFFSET -0.000000 -11.507608 26.556021
                    CHANNELS 3 Zrotation Xrotation Yrotation
                    End Site
                    {
                        OFFSET -0.000000 0.000000 7.081605
                    }
                }
            }
        }
    }
    JOINT RightUpLeg
    {
        OFFSET -17.704014 0.000000 0.000000
        CHANNELS 3 Zrotation Xrotation Yrotation
        JOINT RightLeg
        {
            OFFSET -0.000000 -81.181816 0.000000
            CHANNELS 3 Zrotation Xrotation Yrotation
            JOINT RightFoot
            {
                OFFSET -0.000000 -62.821102 0.000000
                CHANNELS 3 Zrotation Xrotation Yrotation
                JOINT RightToeBase
                {
                    OFFSET -0.000000 -11.507608 26.556021
                    CHANNELS 3 Zrotation Xrotation Yrotation
                    End Site
                    {
                        OFFSET -0.000000 0.000000 7.081605
                    }
                }
            }
        }
    }
}
MOTION
Frames:    4
Frame Time:    0.008333
-22.337357    146.831268    -40.847824    -0.909079    -13.279504    8.977193    -1.500577    -4.031790    11.235559    -0.892875    0.881149    3.767418    -2.858597    1.963799    -13.452700    14.623713    9.315895    -12.772665    0.700738    5.304081    -7.044494    -34.700420    20.901052    -54.649426    -5.437995    -22.669920    -127.893906    -5.008872    -32.297272    -6.736064    -1.087710    14.405942    0.748533    40.574814    15.765662    54.695473    -30.976849    -26.753029    39.456619    11.483486    -12.781354    33.492546    9.602836    -23.779430    -22.533548    -11.926897    24.746050    -21.013163    -9.800513    0.141205    39.545185    0.000000    0.000000    0.000000    5.277243    18.445244    -23.516327    1.548983    35.121067    -4.355018    -0.421600    -39.379333    -8.964458    0.000000    0.000000    0.000000    
-22.352453    146.824127    -40.848789    -0.903635    -13.301590    8.967948    -1.503667    -4.025434    11.238851    -0.887625    0.883406    3.768532    -2.884419    1.986028    -13.458334    14.670852    9.295457    -12.770282    0.695921    5.309138    -7.042460    -34.700062    20.901627    -54.647552    -5.422769    -22.698639    -127.876053    -5.005038    -32.293938    -6.724600    -1.087765    14.396269    0.757320    40.557343    15.783454    54.682510    -30.994738    -26.761019    39.436768    11.469558    -12.793552    33.491817    9.611694    -23.758524    -22.512947    -11.932156    24.751869    -21.002287    -9.802709    0.136113    39.534203    0.000000    0.000000    0.000000    5.276893    18.461485    -23.516703    1.538309    35.137165    -4.345843    -0.432896    -39.396458    -8.959560    0.000000    0.000000    0.000000    
-22.362572    146.818665    -40.848995    -0.897424    -13.324119    8.960120    -1.496356    -4.012451    11.242919    -0.899608    0.877922    3.769786    -2.877568    1.982489    -13.458000    14.667295    9.301423    -12.771732    0.693290    5.311874    -7.040040    -34.710907    20.894819    -54.636948    -5.428566    -22.703472    -127.865883    -4.997520    -32.307159    -6.713655    -1.080120    14.405090    0.766191    40.553059    15.774984    54.678047    -31.001162    -26.764404    39.415218    11.463633    -12.801379    33.509617    9.609967    -23.752058    -22.353342    -11.869898    24.817322    -21.141985    -9.808245    0.134431    39.525425    0.000000    0.000000    0.000000    5.271655    18.481749    -23.516973    1.542652    35.145100    -4.362029    -0.424004    -39.406090    -8.940577    0.000000    0.000000    0.000000    
-22.373251    146.810257    -40.847557    -0.891728    -13.339973    8.952849    -1.497748    -4.015954    11.249541    -0.895642    0.881719    3.772030    -2.876771    1.992515    -13.464314    14.666539    9.293313    -12.777710    0.692539    5.313389    -7.047960    -34.733669    20.879404    -54.620419    -5.439647    -22.683710    -127.853546    -4.947517    -32.308681    -6.699418    -1.073478    14.406367    0.763691    40.530586    15.787955    54.674408    -31.013102    -26.791462    39.384880    11.462131    -12.834528    33.524670    9.620885    -23.721653    -22.518314    -11.944170    24.756853    -20.991749    -9.804873    0.123476    39.544044    0.000000    0.000000    0.000000    5.264367    18.493666    -23.529696    1.543232    35.162678    -4.327300    -0.472673    -39.416718    -8.978329    0.000000    0.000000    0.000000    
